<?xml version="1.0" encoding="utf-8"?>
<svg xmlns="http://www.w3.org/2000/svg" xmlns:xlink="http://www.w3.org/1999/xlink" width="600" height="400" viewBox="0 0 2400 1600">
<defs>
  <clipPath id="clip3300">
    <rect x="0" y="0" width="2400" height="1600"/>
  </clipPath>
</defs>
<path clip-path="url(#clip3300)" d="
M0 1600 L2400 1600 L2400 0 L0 0  Z
  " fill="#ffffff" fill-rule="evenodd" fill-opacity="1"/>
<defs>
  <clipPath id="clip3301">
    <rect x="480" y="0" width="1681" height="1600"/>
  </clipPath>
</defs>
<path clip-path="url(#clip3300)" d="
M224.866 1423.18 L2352.76 1423.18 L2352.76 47.2441 L224.866 47.2441  Z
  " fill="#ffffff" fill-rule="evenodd" fill-opacity="1"/>
<defs>
  <clipPath id="clip3302">
    <rect x="224" y="47" width="2129" height="1377"/>
  </clipPath>
</defs>
<polyline clip-path="url(#clip3302)" style="stroke:#000000; stroke-width:2; stroke-opacity:0.1; fill:none" points="
  285.09,1423.18 285.09,47.2441 
  "/>
<polyline clip-path="url(#clip3302)" style="stroke:#000000; stroke-width:2; stroke-opacity:0.1; fill:none" points="
  786.95,1423.18 786.95,47.2441 
  "/>
<polyline clip-path="url(#clip3302)" style="stroke:#000000; stroke-width:2; stroke-opacity:0.1; fill:none" points="
  1288.81,1423.18 1288.81,47.2441 
  "/>
<polyline clip-path="url(#clip3302)" style="stroke:#000000; stroke-width:2; stroke-opacity:0.1; fill:none" points="
  1790.67,1423.18 1790.67,47.2441 
  "/>
<polyline clip-path="url(#clip3302)" style="stroke:#000000; stroke-width:2; stroke-opacity:0.1; fill:none" points="
  2292.53,1423.18 2292.53,47.2441 
  "/>
<polyline clip-path="url(#clip3302)" style="stroke:#000000; stroke-width:2; stroke-opacity:0.1; fill:none" points="
  224.866,1373.42 2352.76,1373.42 
  "/>
<polyline clip-path="url(#clip3302)" style="stroke:#000000; stroke-width:2; stroke-opacity:0.1; fill:none" points="
  224.866,1102.99 2352.76,1102.99 
  "/>
<polyline clip-path="url(#clip3302)" style="stroke:#000000; stroke-width:2; stroke-opacity:0.1; fill:none" points="
  224.866,832.566 2352.76,832.566 
  "/>
<polyline clip-path="url(#clip3302)" style="stroke:#000000; stroke-width:2; stroke-opacity:0.1; fill:none" points="
  224.866,562.138 2352.76,562.138 
  "/>
<polyline clip-path="url(#clip3302)" style="stroke:#000000; stroke-width:2; stroke-opacity:0.1; fill:none" points="
  224.866,291.711 2352.76,291.711 
  "/>
<polyline clip-path="url(#clip3300)" style="stroke:#000000; stroke-width:4; stroke-opacity:1; fill:none" points="
  224.866,1423.18 2352.76,1423.18 
  "/>
<polyline clip-path="url(#clip3300)" style="stroke:#000000; stroke-width:4; stroke-opacity:1; fill:none" points="
  224.866,1423.18 224.866,47.2441 
  "/>
<polyline clip-path="url(#clip3300)" style="stroke:#000000; stroke-width:4; stroke-opacity:1; fill:none" points="
  285.09,1423.18 285.09,1406.67 
  "/>
<polyline clip-path="url(#clip3300)" style="stroke:#000000; stroke-width:4; stroke-opacity:1; fill:none" points="
  786.95,1423.18 786.95,1406.67 
  "/>
<polyline clip-path="url(#clip3300)" style="stroke:#000000; stroke-width:4; stroke-opacity:1; fill:none" points="
  1288.81,1423.18 1288.81,1406.67 
  "/>
<polyline clip-path="url(#clip3300)" style="stroke:#000000; stroke-width:4; stroke-opacity:1; fill:none" points="
  1790.67,1423.18 1790.67,1406.67 
  "/>
<polyline clip-path="url(#clip3300)" style="stroke:#000000; stroke-width:4; stroke-opacity:1; fill:none" points="
  2292.53,1423.18 2292.53,1406.67 
  "/>
<polyline clip-path="url(#clip3300)" style="stroke:#000000; stroke-width:4; stroke-opacity:1; fill:none" points="
  224.866,1373.42 250.401,1373.42 
  "/>
<polyline clip-path="url(#clip3300)" style="stroke:#000000; stroke-width:4; stroke-opacity:1; fill:none" points="
  224.866,1102.99 250.401,1102.99 
  "/>
<polyline clip-path="url(#clip3300)" style="stroke:#000000; stroke-width:4; stroke-opacity:1; fill:none" points="
  224.866,832.566 250.401,832.566 
  "/>
<polyline clip-path="url(#clip3300)" style="stroke:#000000; stroke-width:4; stroke-opacity:1; fill:none" points="
  224.866,562.138 250.401,562.138 
  "/>
<polyline clip-path="url(#clip3300)" style="stroke:#000000; stroke-width:4; stroke-opacity:1; fill:none" points="
  224.866,291.711 250.401,291.711 
  "/>
<path clip-path="url(#clip3300)" d="M 0 0 M266.606 1445.17 Q262.995 1445.17 261.166 1448.74 Q259.361 1452.28 259.361 1459.41 Q259.361 1466.51 261.166 1470.08 Q262.995 1473.62 266.606 1473.62 Q270.24 1473.62 272.046 1470.08 Q273.874 1466.51 273.874 1459.41 Q273.874 1452.28 272.046 1448.74 Q270.24 1445.17 266.606 1445.17 M266.606 1441.47 Q272.416 1441.47 275.472 1446.07 Q278.55 1450.66 278.55 1459.41 Q278.55 1468.13 275.472 1472.74 Q272.416 1477.32 266.606 1477.32 Q260.796 1477.32 257.717 1472.74 Q254.661 1468.13 254.661 1459.41 Q254.661 1450.66 257.717 1446.07 Q260.796 1441.47 266.606 1441.47 Z" fill="#000000" fill-rule="evenodd" fill-opacity="1" /><path clip-path="url(#clip3300)" d="M 0 0 M283.62 1470.77 L288.504 1470.77 L288.504 1476.65 L283.62 1476.65 L283.62 1470.77 Z" fill="#000000" fill-rule="evenodd" fill-opacity="1" /><path clip-path="url(#clip3300)" d="M 0 0 M303.573 1445.17 Q299.962 1445.17 298.133 1448.74 Q296.328 1452.28 296.328 1459.41 Q296.328 1466.51 298.133 1470.08 Q299.962 1473.62 303.573 1473.62 Q307.207 1473.62 309.013 1470.08 Q310.842 1466.51 310.842 1459.41 Q310.842 1452.28 309.013 1448.74 Q307.207 1445.17 303.573 1445.17 M303.573 1441.47 Q309.383 1441.47 312.439 1446.07 Q315.518 1450.66 315.518 1459.41 Q315.518 1468.13 312.439 1472.74 Q309.383 1477.32 303.573 1477.32 Q297.763 1477.32 294.684 1472.74 Q291.629 1468.13 291.629 1459.41 Q291.629 1450.66 294.684 1446.07 Q297.763 1441.47 303.573 1441.47 Z" fill="#000000" fill-rule="evenodd" fill-opacity="1" /><path clip-path="url(#clip3300)" d="M 0 0 M763.617 1472.72 L779.936 1472.72 L779.936 1476.65 L757.992 1476.65 L757.992 1472.72 Q760.654 1469.96 765.237 1465.33 Q769.844 1460.68 771.024 1459.34 Q773.27 1456.81 774.149 1455.08 Q775.052 1453.32 775.052 1451.63 Q775.052 1448.87 773.108 1447.14 Q771.186 1445.4 768.085 1445.4 Q765.886 1445.4 763.432 1446.17 Q761.001 1446.93 758.224 1448.48 L758.224 1443.76 Q761.048 1442.62 763.501 1442.05 Q765.955 1441.47 767.992 1441.47 Q773.362 1441.47 776.557 1444.15 Q779.751 1446.84 779.751 1451.33 Q779.751 1453.46 778.941 1455.38 Q778.154 1457.28 776.048 1459.87 Q775.469 1460.54 772.367 1463.76 Q769.265 1466.95 763.617 1472.72 Z" fill="#000000" fill-rule="evenodd" fill-opacity="1" /><path clip-path="url(#clip3300)" d="M 0 0 M785.006 1470.77 L789.89 1470.77 L789.89 1476.65 L785.006 1476.65 L785.006 1470.77 Z" fill="#000000" fill-rule="evenodd" fill-opacity="1" /><path clip-path="url(#clip3300)" d="M 0 0 M795.006 1442.09 L813.362 1442.09 L813.362 1446.03 L799.288 1446.03 L799.288 1454.5 Q800.307 1454.15 801.325 1453.99 Q802.344 1453.8 803.362 1453.8 Q809.149 1453.8 812.529 1456.98 Q815.908 1460.15 815.908 1465.56 Q815.908 1471.14 812.436 1474.24 Q808.964 1477.32 802.645 1477.32 Q800.469 1477.32 798.2 1476.95 Q795.955 1476.58 793.547 1475.84 L793.547 1471.14 Q795.631 1472.28 797.853 1472.83 Q800.075 1473.39 802.552 1473.39 Q806.557 1473.39 808.895 1471.28 Q811.233 1469.18 811.233 1465.56 Q811.233 1461.95 808.895 1459.85 Q806.557 1457.74 802.552 1457.74 Q800.677 1457.74 798.802 1458.16 Q796.95 1458.57 795.006 1459.45 L795.006 1442.09 Z" fill="#000000" fill-rule="evenodd" fill-opacity="1" /><path clip-path="url(#clip3300)" d="M 0 0 M1260.61 1442.09 L1278.96 1442.09 L1278.96 1446.03 L1264.89 1446.03 L1264.89 1454.5 Q1265.91 1454.15 1266.92 1453.99 Q1267.94 1453.8 1268.96 1453.8 Q1274.75 1453.8 1278.13 1456.98 Q1281.51 1460.15 1281.51 1465.56 Q1281.51 1471.14 1278.04 1474.24 Q1274.56 1477.32 1268.24 1477.32 Q1266.07 1477.32 1263.8 1476.95 Q1261.55 1476.58 1259.15 1475.84 L1259.15 1471.14 Q1261.23 1472.28 1263.45 1472.83 Q1265.67 1473.39 1268.15 1473.39 Q1272.16 1473.39 1274.49 1471.28 Q1276.83 1469.18 1276.83 1465.56 Q1276.83 1461.95 1274.49 1459.85 Q1272.16 1457.74 1268.15 1457.74 Q1266.28 1457.74 1264.4 1458.16 Q1262.55 1458.57 1260.61 1459.45 L1260.61 1442.09 Z" fill="#000000" fill-rule="evenodd" fill-opacity="1" /><path clip-path="url(#clip3300)" d="M 0 0 M1286.58 1470.77 L1291.46 1470.77 L1291.46 1476.65 L1286.58 1476.65 L1286.58 1470.77 Z" fill="#000000" fill-rule="evenodd" fill-opacity="1" /><path clip-path="url(#clip3300)" d="M 0 0 M1306.53 1445.17 Q1302.92 1445.17 1301.09 1448.74 Q1299.29 1452.28 1299.29 1459.41 Q1299.29 1466.51 1301.09 1470.08 Q1302.92 1473.62 1306.53 1473.62 Q1310.17 1473.62 1311.97 1470.08 Q1313.8 1466.51 1313.8 1459.41 Q1313.8 1452.28 1311.97 1448.74 Q1310.17 1445.17 1306.53 1445.17 M1306.53 1441.47 Q1312.34 1441.47 1315.4 1446.07 Q1318.48 1450.66 1318.48 1459.41 Q1318.48 1468.13 1315.4 1472.74 Q1312.34 1477.32 1306.53 1477.32 Q1300.72 1477.32 1297.64 1472.74 Q1294.59 1468.13 1294.59 1459.41 Q1294.59 1450.66 1297.64 1446.07 Q1300.72 1441.47 1306.53 1441.47 Z" fill="#000000" fill-rule="evenodd" fill-opacity="1" /><path clip-path="url(#clip3300)" d="M 0 0 M1761.57 1442.09 L1783.8 1442.09 L1783.8 1444.08 L1771.25 1476.65 L1766.37 1476.65 L1778.17 1446.03 L1761.57 1446.03 L1761.57 1442.09 Z" fill="#000000" fill-rule="evenodd" fill-opacity="1" /><path clip-path="url(#clip3300)" d="M 0 0 M1788.87 1470.77 L1793.75 1470.77 L1793.75 1476.65 L1788.87 1476.65 L1788.87 1470.77 Z" fill="#000000" fill-rule="evenodd" fill-opacity="1" /><path clip-path="url(#clip3300)" d="M 0 0 M1798.87 1442.09 L1817.22 1442.09 L1817.22 1446.03 L1803.15 1446.03 L1803.15 1454.5 Q1804.17 1454.15 1805.19 1453.99 Q1806.2 1453.8 1807.22 1453.8 Q1813.01 1453.8 1816.39 1456.98 Q1819.77 1460.15 1819.77 1465.56 Q1819.77 1471.14 1816.3 1474.24 Q1812.82 1477.32 1806.51 1477.32 Q1804.33 1477.32 1802.06 1476.95 Q1799.82 1476.58 1797.41 1475.84 L1797.41 1471.14 Q1799.49 1472.28 1801.71 1472.83 Q1803.94 1473.39 1806.41 1473.39 Q1810.42 1473.39 1812.76 1471.28 Q1815.09 1469.18 1815.09 1465.56 Q1815.09 1461.95 1812.76 1459.85 Q1810.42 1457.74 1806.41 1457.74 Q1804.54 1457.74 1802.66 1458.16 Q1800.81 1458.57 1798.87 1459.45 L1798.87 1442.09 Z" fill="#000000" fill-rule="evenodd" fill-opacity="1" /><path clip-path="url(#clip3300)" d="M 0 0 M2250.92 1472.72 L2258.56 1472.72 L2258.56 1446.35 L2250.25 1448.02 L2250.25 1443.76 L2258.52 1442.09 L2263.19 1442.09 L2263.19 1472.72 L2270.83 1472.72 L2270.83 1476.65 L2250.92 1476.65 L2250.92 1472.72 Z" fill="#000000" fill-rule="evenodd" fill-opacity="1" /><path clip-path="url(#clip3300)" d="M 0 0 M2285.9 1445.17 Q2282.29 1445.17 2280.46 1448.74 Q2278.66 1452.28 2278.66 1459.41 Q2278.66 1466.51 2280.46 1470.08 Q2282.29 1473.62 2285.9 1473.62 Q2289.53 1473.62 2291.34 1470.08 Q2293.17 1466.51 2293.17 1459.41 Q2293.17 1452.28 2291.34 1448.74 Q2289.53 1445.17 2285.9 1445.17 M2285.9 1441.47 Q2291.71 1441.47 2294.77 1446.07 Q2297.85 1450.66 2297.85 1459.41 Q2297.85 1468.13 2294.77 1472.74 Q2291.71 1477.32 2285.9 1477.32 Q2280.09 1477.32 2277.01 1472.74 Q2273.96 1468.13 2273.96 1459.41 Q2273.96 1450.66 2277.01 1446.07 Q2280.09 1441.47 2285.9 1441.47 Z" fill="#000000" fill-rule="evenodd" fill-opacity="1" /><path clip-path="url(#clip3300)" d="M 0 0 M2302.91 1470.77 L2307.8 1470.77 L2307.8 1476.65 L2302.91 1476.65 L2302.91 1470.77 Z" fill="#000000" fill-rule="evenodd" fill-opacity="1" /><path clip-path="url(#clip3300)" d="M 0 0 M2322.87 1445.17 Q2319.26 1445.17 2317.43 1448.74 Q2315.62 1452.28 2315.62 1459.41 Q2315.62 1466.51 2317.43 1470.08 Q2319.26 1473.62 2322.87 1473.62 Q2326.5 1473.62 2328.31 1470.08 Q2330.14 1466.51 2330.14 1459.41 Q2330.14 1452.28 2328.31 1448.74 Q2326.5 1445.17 2322.87 1445.17 M2322.87 1441.47 Q2328.68 1441.47 2331.73 1446.07 Q2334.81 1450.66 2334.81 1459.41 Q2334.81 1468.13 2331.73 1472.74 Q2328.68 1477.32 2322.87 1477.32 Q2317.06 1477.32 2313.98 1472.74 Q2310.92 1468.13 2310.92 1459.41 Q2310.92 1450.66 2313.98 1446.07 Q2317.06 1441.47 2322.87 1441.47 Z" fill="#000000" fill-rule="evenodd" fill-opacity="1" /><path clip-path="url(#clip3300)" d="M 0 0 M188.922 1359.22 Q185.311 1359.22 183.482 1362.78 Q181.677 1366.33 181.677 1373.46 Q181.677 1380.56 183.482 1384.13 Q185.311 1387.67 188.922 1387.67 Q192.556 1387.67 194.362 1384.13 Q196.19 1380.56 196.19 1373.46 Q196.19 1366.33 194.362 1362.78 Q192.556 1359.22 188.922 1359.22 M188.922 1355.52 Q194.732 1355.52 197.788 1360.12 Q200.866 1364.71 200.866 1373.46 Q200.866 1382.18 197.788 1386.79 Q194.732 1391.37 188.922 1391.37 Q183.112 1391.37 180.033 1386.79 Q176.977 1382.18 176.977 1373.46 Q176.977 1364.71 180.033 1360.12 Q183.112 1355.52 188.922 1355.52 Z" fill="#000000" fill-rule="evenodd" fill-opacity="1" /><path clip-path="url(#clip3300)" d="M 0 0 M158.529 1116.34 L174.848 1116.34 L174.848 1120.27 L152.904 1120.27 L152.904 1116.34 Q155.566 1113.58 160.149 1108.95 Q164.755 1104.3 165.936 1102.96 Q168.181 1100.44 169.061 1098.7 Q169.964 1096.94 169.964 1095.25 Q169.964 1092.5 168.019 1090.76 Q166.098 1089.02 162.996 1089.02 Q160.797 1089.02 158.343 1089.79 Q155.913 1090.55 153.135 1092.1 L153.135 1087.38 Q155.959 1086.25 158.413 1085.67 Q160.866 1085.09 162.903 1085.09 Q168.274 1085.09 171.468 1087.77 Q174.663 1090.46 174.663 1094.95 Q174.663 1097.08 173.852 1099 Q173.065 1100.9 170.959 1103.49 Q170.38 1104.16 167.278 1107.38 Q164.177 1110.57 158.529 1116.34 Z" fill="#000000" fill-rule="evenodd" fill-opacity="1" /><path clip-path="url(#clip3300)" d="M 0 0 M179.964 1085.71 L198.32 1085.71 L198.32 1089.65 L184.246 1089.65 L184.246 1098.12 Q185.264 1097.77 186.283 1097.61 Q187.301 1097.43 188.32 1097.43 Q194.107 1097.43 197.487 1100.6 Q200.866 1103.77 200.866 1109.19 Q200.866 1114.76 197.394 1117.87 Q193.922 1120.94 187.602 1120.94 Q185.427 1120.94 183.158 1120.57 Q180.913 1120.2 178.505 1119.46 L178.505 1114.76 Q180.589 1115.9 182.811 1116.45 Q185.033 1117.01 187.51 1117.01 Q191.514 1117.01 193.852 1114.9 Q196.19 1112.8 196.19 1109.19 Q196.19 1105.57 193.852 1103.47 Q191.514 1101.36 187.51 1101.36 Q185.635 1101.36 183.76 1101.78 Q181.908 1102.19 179.964 1103.07 L179.964 1085.71 Z" fill="#000000" fill-rule="evenodd" fill-opacity="1" /><path clip-path="url(#clip3300)" d="M 0 0 M152.95 815.286 L171.306 815.286 L171.306 819.221 L157.232 819.221 L157.232 827.693 Q158.251 827.346 159.269 827.184 Q160.288 826.999 161.306 826.999 Q167.093 826.999 170.473 830.17 Q173.852 833.341 173.852 838.758 Q173.852 844.337 170.38 847.439 Q166.908 850.517 160.589 850.517 Q158.413 850.517 156.144 850.147 Q153.899 849.776 151.492 849.036 L151.492 844.337 Q153.575 845.471 155.797 846.026 Q158.019 846.582 160.496 846.582 Q164.501 846.582 166.839 844.476 Q169.177 842.369 169.177 838.758 Q169.177 835.147 166.839 833.04 Q164.501 830.934 160.496 830.934 Q158.621 830.934 156.746 831.351 Q154.894 831.767 152.95 832.647 L152.95 815.286 Z" fill="#000000" fill-rule="evenodd" fill-opacity="1" /><path clip-path="url(#clip3300)" d="M 0 0 M188.922 818.365 Q185.311 818.365 183.482 821.929 Q181.677 825.471 181.677 832.601 Q181.677 839.707 183.482 843.272 Q185.311 846.814 188.922 846.814 Q192.556 846.814 194.362 843.272 Q196.19 839.707 196.19 832.601 Q196.19 825.471 194.362 821.929 Q192.556 818.365 188.922 818.365 M188.922 814.661 Q194.732 814.661 197.788 819.267 Q200.866 823.851 200.866 832.601 Q200.866 841.327 197.788 845.934 Q194.732 850.517 188.922 850.517 Q183.112 850.517 180.033 845.934 Q176.977 841.327 176.977 832.601 Q176.977 823.851 180.033 819.267 Q183.112 814.661 188.922 814.661 Z" fill="#000000" fill-rule="evenodd" fill-opacity="1" /><path clip-path="url(#clip3300)" d="M 0 0 M152.626 544.858 L174.848 544.858 L174.848 546.849 L162.302 579.418 L157.417 579.418 L169.223 548.793 L152.626 548.793 L152.626 544.858 Z" fill="#000000" fill-rule="evenodd" fill-opacity="1" /><path clip-path="url(#clip3300)" d="M 0 0 M179.964 544.858 L198.32 544.858 L198.32 548.793 L184.246 548.793 L184.246 557.266 Q185.264 556.918 186.283 556.756 Q187.301 556.571 188.32 556.571 Q194.107 556.571 197.487 559.742 Q200.866 562.914 200.866 568.33 Q200.866 573.909 197.394 577.011 Q193.922 580.09 187.602 580.09 Q185.427 580.09 183.158 579.719 Q180.913 579.349 178.505 578.608 L178.505 573.909 Q180.589 575.043 182.811 575.599 Q185.033 576.154 187.51 576.154 Q191.514 576.154 193.852 574.048 Q196.19 571.941 196.19 568.33 Q196.19 564.719 193.852 562.613 Q191.514 560.506 187.51 560.506 Q185.635 560.506 183.76 560.923 Q181.908 561.34 179.964 562.219 L179.964 544.858 Z" fill="#000000" fill-rule="evenodd" fill-opacity="1" /><path clip-path="url(#clip3300)" d="M 0 0 M126.931 305.056 L134.57 305.056 L134.57 278.69 L126.26 280.357 L126.26 276.097 L134.524 274.431 L139.2 274.431 L139.2 305.056 L146.839 305.056 L146.839 308.991 L126.931 308.991 L126.931 305.056 Z" fill="#000000" fill-rule="evenodd" fill-opacity="1" /><path clip-path="url(#clip3300)" d="M 0 0 M161.908 277.509 Q158.297 277.509 156.468 281.074 Q154.663 284.616 154.663 291.745 Q154.663 298.852 156.468 302.417 Q158.297 305.958 161.908 305.958 Q165.542 305.958 167.348 302.417 Q169.177 298.852 169.177 291.745 Q169.177 284.616 167.348 281.074 Q165.542 277.509 161.908 277.509 M161.908 273.806 Q167.718 273.806 170.774 278.412 Q173.852 282.995 173.852 291.745 Q173.852 300.472 170.774 305.079 Q167.718 309.662 161.908 309.662 Q156.098 309.662 153.019 305.079 Q149.964 300.472 149.964 291.745 Q149.964 282.995 153.019 278.412 Q156.098 273.806 161.908 273.806 Z" fill="#000000" fill-rule="evenodd" fill-opacity="1" /><path clip-path="url(#clip3300)" d="M 0 0 M188.922 277.509 Q185.311 277.509 183.482 281.074 Q181.677 284.616 181.677 291.745 Q181.677 298.852 183.482 302.417 Q185.311 305.958 188.922 305.958 Q192.556 305.958 194.362 302.417 Q196.19 298.852 196.19 291.745 Q196.19 284.616 194.362 281.074 Q192.556 277.509 188.922 277.509 M188.922 273.806 Q194.732 273.806 197.788 278.412 Q200.866 282.995 200.866 291.745 Q200.866 300.472 197.788 305.079 Q194.732 309.662 188.922 309.662 Q183.112 309.662 180.033 305.079 Q176.977 300.472 176.977 291.745 Q176.977 282.995 180.033 278.412 Q183.112 273.806 188.922 273.806 Z" fill="#000000" fill-rule="evenodd" fill-opacity="1" /><path clip-path="url(#clip3300)" d="M 0 0 M1305.43 1520.4 L1292.54 1537.74 L1306.09 1556.04 L1299.19 1556.04 L1288.81 1542.04 L1278.43 1556.04 L1271.53 1556.04 L1285.37 1537.39 L1272.71 1520.4 L1279.61 1520.4 L1289.07 1533.1 L1298.52 1520.4 L1305.43 1520.4 Z" fill="#000000" fill-rule="evenodd" fill-opacity="1" /><path clip-path="url(#clip3300)" d="M 0 0 M91.3143 733.525 Q97.68 736.008 99.6216 738.363 Q101.563 740.718 101.563 744.665 L101.563 749.344 L96.6615 749.344 L96.6615 745.906 Q96.6615 743.487 95.5157 742.151 Q94.3699 740.814 90.1048 739.191 L87.4312 738.14 L52.3562 752.559 L52.3562 746.352 L80.238 735.212 L52.3562 724.072 L52.3562 717.865 L91.3143 733.525 Z" fill="#000000" fill-rule="evenodd" fill-opacity="1" /><polyline clip-path="url(#clip3302)" style="stroke:#009af9; stroke-width:4; stroke-opacity:1; fill:none" points="
  285.09,1384.24 304.694,1382.02 485.964,1351.76 594.9,1325.09 687.004,1297.56 787.055,1262.51 879.292,1225.43 978.181,1180.6 1092.75,1122.1 1194.57,1064.19 
  1283.86,1008.84 1381.2,943.606 1479.13,872.856 1587.39,788.64 1690.41,702.668 1797.52,607.236 1887.68,522.129 1997.76,412.305 2101.24,303.136 2267.02,116.256 
  2292.53,86.1857 
  "/>
<path clip-path="url(#clip3300)" d="
M1989.74 251.724 L2280.76 251.724 L2280.76 130.764 L1989.74 130.764  Z
  " fill="#ffffff" fill-rule="evenodd" fill-opacity="1"/>
<polyline clip-path="url(#clip3300)" style="stroke:#000000; stroke-width:4; stroke-opacity:1; fill:none" points="
  1989.74,251.724 2280.76,251.724 2280.76,130.764 1989.74,130.764 1989.74,251.724 
  "/>
<polyline clip-path="url(#clip3300)" style="stroke:#009af9; stroke-width:4; stroke-opacity:1; fill:none" points="
  2013.74,191.244 2157.74,191.244 
  "/>
<path clip-path="url(#clip3300)" d="M 0 0 M2195.58 210.931 Q2193.77 215.561 2192.06 216.973 Q2190.35 218.385 2187.48 218.385 L2184.08 218.385 L2184.08 214.82 L2186.58 214.82 Q2188.33 214.82 2189.31 213.987 Q2190.28 213.154 2191.46 210.052 L2192.22 208.107 L2181.74 182.598 L2186.25 182.598 L2194.35 202.876 L2202.46 182.598 L2206.97 182.598 L2195.58 210.931 Z" fill="#000000" fill-rule="evenodd" fill-opacity="1" /><path clip-path="url(#clip3300)" d="M 0 0 M2212.85 204.589 L2220.49 204.589 L2220.49 178.223 L2212.18 179.89 L2212.18 175.631 L2220.44 173.964 L2225.12 173.964 L2225.12 204.589 L2232.76 204.589 L2232.76 208.524 L2212.85 208.524 L2212.85 204.589 Z" fill="#000000" fill-rule="evenodd" fill-opacity="1" /></svg>
